<svg xmlns="http://www.w3.org/2000/svg" width="197.22" height="197.34" viewBox="0 0 197.22 197.34"><title>cart</title><g id="Layer_2" data-name="Layer 2"><g id="Layer_1-2" data-name="Layer 1"><path d="M53.09,153.45q-4.32-24.6-8.6-49c-4.25-24-8.56-48-12.71-72a6.11,6.11,0,0,0-3.55-4.94c-7.49-3.95-14.88-8.09-22.31-12.17C.41,12.29-1.36,8.08,1.06,3.8s6.8-5,12.06-2.11C22,6.52,30.86,11.51,39.84,16.22a11.22,11.22,0,0,1,6.37,9c.88,5.84,2.3,11.6,2.93,17.46.39,3.5,1.93,4,5,4,15.29-.13,30.58-.06,45.87-.06h86.74c9.13,0,11.71,3.13,10,12.18-1.27,6.68-2.6,13.35-3.95,20-1.05,5.21-4.72,8.14-9.1,7.37-4.64-.82-7.08-4.85-6.1-10.28.8-4.41,1.75-8.8,2.75-13.8-6.2,0-12.06-.09-17.91.12-.65,0-1.7,1.72-1.79,2.71-1.43,15.09-2.73,30.19-4.05,45.29-.31,3.55-.6,7.1-.9,10.64A14.42,14.42,0,0,0,170.41,111c.39-1.09.57-2.25,1-3.32a7.55,7.55,0,0,1,8.72-4.67,7.25,7.25,0,0,1,6,7.81,18.62,18.62,0,0,1-1.28,5.6c-4.79,11.87-13.48,18.83-26.32,20.12-4.2.42-8.47.28-12.71.29q-37.39,0-74.79,0H65.88c.93,5.22,1.68,10,2.71,14.69.18.83,1.45,1.62,2.39,2.06a22.4,22.4,0,0,1,11.45,11c.94,2,2.21,2.42,4.2,2.41,13-.06,26-.09,38.93,0,2.29,0,3.31-.85,4.34-2.8a22.48,22.48,0,0,1,26-11.55,22.72,22.72,0,0,1-.18,44A22.36,22.36,0,0,1,130,185.1a4.54,4.54,0,0,0-4.71-2.86c-12.85.11-25.7,0-38.55.15a5.67,5.67,0,0,0-4.14,2.22c-5.37,9.13-14.28,13.95-23.67,12.47a22.88,22.88,0,0,1-19.2-18.56c-1.86-9.37,2.6-18.59,11.61-24ZM52.7,62.23c3.37,19.23,6.67,38.15,10.06,57.05.14.77,1.17,1.93,1.82,2,4.58.17,9.16.09,14,.09-1.79-20-3.55-39.51-5.31-59.09Zm72.08,59.11c4.75,0,9.09.12,13.42-.12.75,0,2-1.52,2.05-2.42,1.68-17.87,3.24-35.75,4.79-53.63a20.29,20.29,0,0,0-.12-2.84H124.78Zm-15.92-.19V62.26h-20c1.78,19.8,3.53,39.3,5.3,58.89ZM69.43,174.49a7.3,7.3,0,1,0-7.37,7.35A7.38,7.38,0,0,0,69.43,174.49ZM150,181.84a7.31,7.31,0,1,0-.09-14.61,7.31,7.31,0,0,0,.09,14.61Z"/></g></g></svg>